<mxfile host="65bd71144e" pages="1">
    <diagram id="kgpKYQtTHZ0yAKxKKP6v" name="Page-1">
        <mxGraphModel dx="1298" dy="679" grid="1" gridSize="10" guides="1" tooltips="1" connect="1" arrows="1" fold="1" page="1" pageScale="1" pageWidth="850" pageHeight="1100" background="#ffffff" math="0" shadow="0">
            <root>
                <mxCell id="0"/>
                <mxCell id="1" parent="0"/>
                <mxCell id="ZtbHd8O48yMQmEpK10x9-35" value="RATD" style="shape=umlLifeline;perimeter=lifelinePerimeter;container=1;collapsible=0;recursiveResize=0;rounded=0;shadow=0;strokeWidth=1;" parent="1" vertex="1">
                    <mxGeometry x="280" y="20" width="100" height="610" as="geometry"/>
                </mxCell>
                <mxCell id="ZtbHd8O48yMQmEpK10x9-36" value="" style="points=[];perimeter=orthogonalPerimeter;rounded=0;shadow=0;strokeWidth=1;" parent="ZtbHd8O48yMQmEpK10x9-35" vertex="1">
                    <mxGeometry x="45" y="70" width="10" height="470" as="geometry"/>
                </mxCell>
                <mxCell id="ZtbHd8O48yMQmEpK10x9-40" value="File System" style="shape=umlLifeline;perimeter=lifelinePerimeter;container=1;collapsible=0;recursiveResize=0;rounded=0;shadow=0;strokeWidth=1;" parent="1" vertex="1">
                    <mxGeometry x="640" y="20" width="100" height="610" as="geometry"/>
                </mxCell>
                <mxCell id="ZtbHd8O48yMQmEpK10x9-41" value="" style="points=[];perimeter=orthogonalPerimeter;rounded=0;shadow=0;strokeWidth=1;" parent="ZtbHd8O48yMQmEpK10x9-40" vertex="1">
                    <mxGeometry x="45" y="80" width="10" height="460" as="geometry"/>
                </mxCell>
                <mxCell id="ZtbHd8O48yMQmEpK10x9-43" value="用户" style="shape=umlLifeline;perimeter=lifelinePerimeter;container=1;collapsible=0;recursiveResize=0;rounded=0;shadow=0;strokeWidth=1;" parent="1" vertex="1">
                    <mxGeometry x="100" y="20" width="100" height="610" as="geometry"/>
                </mxCell>
                <mxCell id="ZtbHd8O48yMQmEpK10x9-44" value="" style="points=[];perimeter=orthogonalPerimeter;rounded=0;shadow=0;strokeWidth=1;" parent="ZtbHd8O48yMQmEpK10x9-43" vertex="1">
                    <mxGeometry x="45" y="70" width="10" height="540" as="geometry"/>
                </mxCell>
                <mxCell id="ZtbHd8O48yMQmEpK10x9-45" value="修改秘钥" style="verticalAlign=bottom;endArrow=block;entryX=0;entryY=0;shadow=0;strokeWidth=1;" parent="1" edge="1">
                    <mxGeometry relative="1" as="geometry">
                        <mxPoint x="155" y="120.00000000000011" as="sourcePoint"/>
                        <mxPoint x="325" y="120.00000000000011" as="targetPoint"/>
                    </mxGeometry>
                </mxCell>
                <mxCell id="ZtbHd8O48yMQmEpK10x9-49" value="修改数据库" style="curved=1;endArrow=classic;html=1;" parent="1" edge="1">
                    <mxGeometry width="50" height="50" relative="1" as="geometry">
                        <mxPoint x="335" y="150" as="sourcePoint"/>
                        <mxPoint x="335" y="100" as="targetPoint"/>
                        <Array as="points">
                            <mxPoint x="385" y="150"/>
                            <mxPoint x="375" y="100"/>
                            <mxPoint x="335" y="100"/>
                        </Array>
                    </mxGeometry>
                </mxCell>
                <mxCell id="-QkcBiI8JvV_LFgTfrD9-2" value="RAT" style="shape=umlLifeline;perimeter=lifelinePerimeter;container=1;collapsible=0;recursiveResize=0;rounded=0;shadow=0;strokeWidth=1;" parent="1" vertex="1">
                    <mxGeometry x="460" y="20" width="100" height="610" as="geometry"/>
                </mxCell>
                <mxCell id="-QkcBiI8JvV_LFgTfrD9-3" value="" style="points=[];perimeter=orthogonalPerimeter;rounded=0;shadow=0;strokeWidth=1;" parent="-QkcBiI8JvV_LFgTfrD9-2" vertex="1">
                    <mxGeometry x="45" y="80" width="10" height="460" as="geometry"/>
                </mxCell>
                <mxCell id="-QkcBiI8JvV_LFgTfrD9-9" value="请求文件下载" style="verticalAlign=bottom;endArrow=block;entryX=0;entryY=0;shadow=0;strokeWidth=1;" parent="1" edge="1">
                    <mxGeometry relative="1" as="geometry">
                        <mxPoint x="155" y="170.0000000000001" as="sourcePoint"/>
                        <mxPoint x="325" y="170.0000000000001" as="targetPoint"/>
                    </mxGeometry>
                </mxCell>
                <mxCell id="-QkcBiI8JvV_LFgTfrD9-11" value="发起文件下载指令" style="verticalAlign=bottom;endArrow=block;shadow=0;strokeWidth=1;" parent="1" edge="1">
                    <mxGeometry x="-0.0303" relative="1" as="geometry">
                        <mxPoint x="340" y="190" as="sourcePoint"/>
                        <mxPoint x="505" y="190" as="targetPoint"/>
                        <Array as="points">
                            <mxPoint x="410" y="190"/>
                        </Array>
                        <mxPoint as="offset"/>
                    </mxGeometry>
                </mxCell>
                <mxCell id="-QkcBiI8JvV_LFgTfrD9-13" value="发送文件下载信息" style="verticalAlign=bottom;endArrow=block;shadow=0;strokeWidth=1;" parent="1" edge="1">
                    <mxGeometry relative="1" as="geometry">
                        <mxPoint x="520" y="210.0000000000001" as="sourcePoint"/>
                        <mxPoint x="680" y="210.5" as="targetPoint"/>
                    </mxGeometry>
                </mxCell>
                <mxCell id="-QkcBiI8JvV_LFgTfrD9-16" value="分段传输并用刚才发过来的&#10;AES加密后发送文件内容" style="verticalAlign=bottom;endArrow=block;shadow=0;strokeWidth=1;" parent="1" edge="1">
                    <mxGeometry relative="1" as="geometry">
                        <mxPoint x="680" y="474.5" as="sourcePoint"/>
                        <mxPoint x="520" y="474.5" as="targetPoint"/>
                    </mxGeometry>
                </mxCell>
                <mxCell id="-QkcBiI8JvV_LFgTfrD9-19" value="" style="verticalAlign=bottom;endArrow=block;shadow=0;strokeWidth=1;" parent="1" edge="1">
                    <mxGeometry relative="1" as="geometry">
                        <mxPoint x="685" y="540" as="sourcePoint"/>
                        <mxPoint x="335" y="540" as="targetPoint"/>
                        <Array as="points">
                            <mxPoint x="605" y="540"/>
                        </Array>
                    </mxGeometry>
                </mxCell>
                <mxCell id="-QkcBiI8JvV_LFgTfrD9-31" value="下载事件（成功、失败等）" style="edgeLabel;html=1;align=center;verticalAlign=middle;resizable=0;points=[];" parent="-QkcBiI8JvV_LFgTfrD9-19" vertex="1" connectable="0">
                    <mxGeometry x="0.1886" y="-3" relative="1" as="geometry">
                        <mxPoint as="offset"/>
                    </mxGeometry>
                </mxCell>
                <mxCell id="-QkcBiI8JvV_LFgTfrD9-21" value="lj" style="endArrow=classic;html=1;exitX=-0.2;exitY=0.153;exitDx=0;exitDy=0;exitPerimeter=0;entryX=1;entryY=0.173;entryDx=0;entryDy=0;entryPerimeter=0;" parent="1" edge="1">
                    <mxGeometry width="50" height="50" relative="1" as="geometry">
                        <mxPoint x="684" y="240" as="sourcePoint"/>
                        <mxPoint x="336" y="241.06000000000006" as="targetPoint"/>
                    </mxGeometry>
                </mxCell>
                <mxCell id="-QkcBiI8JvV_LFgTfrD9-22" value="收到文件传输消息后，读库获取最新加密方式" style="edgeLabel;html=1;align=center;verticalAlign=middle;resizable=0;points=[];" parent="-QkcBiI8JvV_LFgTfrD9-21" vertex="1" connectable="0">
                    <mxGeometry x="0.1221" y="-2" relative="1" as="geometry">
                        <mxPoint as="offset"/>
                    </mxGeometry>
                </mxCell>
                <mxCell id="-QkcBiI8JvV_LFgTfrD9-32" value="发送ratd_rsa_公钥" style="verticalAlign=bottom;endArrow=block;entryX=1;entryY=0.474;shadow=0;strokeWidth=1;entryDx=0;entryDy=0;entryPerimeter=0;" parent="1" edge="1">
                    <mxGeometry relative="1" as="geometry">
                        <mxPoint x="680" y="290" as="sourcePoint"/>
                        <mxPoint x="520" y="290.05999999999995" as="targetPoint"/>
                        <Array as="points"/>
                    </mxGeometry>
                </mxCell>
                <mxCell id="6" value="&lt;span style=&quot;color: rgb(0 , 0 , 0) ; font-family: &amp;#34;helvetica&amp;#34; ; font-size: 11px ; font-style: normal ; font-weight: 400 ; letter-spacing: normal ; text-align: center ; text-indent: 0px ; text-transform: none ; word-spacing: 0px ; background-color: rgb(255 , 255 , 255) ; display: inline ; float: none&quot;&gt;解密获得rat_rsa_公钥信息&lt;/span&gt;" style="text;whiteSpace=wrap;html=1;" parent="1" vertex="1">
                    <mxGeometry x="700" y="330" width="135" height="30" as="geometry"/>
                </mxCell>
                <mxCell id="7" value="利用ratd_rsa_公钥加密&#10;自己的rat_rsa_公钥并发送" style="verticalAlign=bottom;endArrow=block;entryX=0;entryY=0;shadow=0;strokeWidth=1;" parent="1" edge="1">
                    <mxGeometry relative="1" as="geometry">
                        <mxPoint x="520" y="350" as="sourcePoint"/>
                        <mxPoint x="680" y="350.0000000000001" as="targetPoint"/>
                    </mxGeometry>
                </mxCell>
                <mxCell id="9" value="利用rat_rsa_公钥加密&#10;自己的ratd_aes秘钥并发送" style="verticalAlign=bottom;endArrow=block;entryX=1;entryY=0.474;shadow=0;strokeWidth=1;entryDx=0;entryDy=0;entryPerimeter=0;" parent="1" edge="1">
                    <mxGeometry relative="1" as="geometry">
                        <mxPoint x="680" y="410" as="sourcePoint"/>
                        <mxPoint x="520" y="410.05999999999995" as="targetPoint"/>
                        <Array as="points"/>
                    </mxGeometry>
                </mxCell>
                <mxCell id="10" value="&lt;span style=&quot;color: rgb(0 , 0 , 0) ; font-family: &amp;#34;helvetica&amp;#34; ; font-size: 11px ; font-style: normal ; font-weight: 400 ; letter-spacing: normal ; text-align: center ; text-indent: 0px ; text-transform: none ; word-spacing: 0px ; background-color: rgb(255 , 255 , 255) ; display: inline ; float: none&quot;&gt;解密获得aes秘钥&lt;/span&gt;" style="text;whiteSpace=wrap;html=1;" parent="1" vertex="1">
                    <mxGeometry x="415" y="390" width="90" height="30" as="geometry"/>
                </mxCell>
                <mxCell id="11" value="&lt;span style=&quot;color: rgb(0 , 0 , 0) ; font-family: &amp;#34;helvetica&amp;#34; ; font-size: 11px ; font-style: normal ; font-weight: 400 ; letter-spacing: normal ; text-align: center ; text-indent: 0px ; text-transform: none ; word-spacing: 0px ; background-color: rgb(255 , 255 , 255) ; display: inline ; float: none&quot;&gt;解密并写入磁盘&lt;/span&gt;" style="text;whiteSpace=wrap;html=1;" parent="1" vertex="1">
                    <mxGeometry x="420" y="460" width="80" height="30" as="geometry"/>
                </mxCell>
                <mxCell id="12" value="通知下载完成或异常" style="verticalAlign=bottom;endArrow=block;entryX=0;entryY=0;shadow=0;strokeWidth=1;" edge="1" parent="1">
                    <mxGeometry relative="1" as="geometry">
                        <mxPoint x="520" y="514.5" as="sourcePoint"/>
                        <mxPoint x="680" y="514.5" as="targetPoint"/>
                    </mxGeometry>
                </mxCell>
            </root>
        </mxGraphModel>
    </diagram>
</mxfile>